<?xml version="1.0" encoding="UTF-8"?>
<svg xmlns="http://www.w3.org/2000/svg" viewBox="0 0 560 140" role="img" aria-label="FoglaljOnline">
  <defs>
    <linearGradient id="g" x1="0" y1="0" x2="0" y2="1">
      <stop offset="0" stop-color="#10b981"/>
      <stop offset="1" stop-color="#0b815a"/>
    </linearGradient>
  </defs>

  <!-- Mark background -->
  <rect x="20" y="20" width="100" height="100" rx="24" fill="url(#g)"/>
  <!-- Mark foreground (white) -->
  <g fill="#ffffff" transform="translate(20 20)">
    <rect x="22" y="16" width="18" height="70" rx="9"/>
    <rect x="22" y="16" width="62" height="16" rx="8"/>
    <rect x="22" y="46" width="50" height="14" rx="7"/>
    <rect x="66" y="56" width="8" height="8" rx="2"/>
    <rect x="78" y="56" width="8" height="8" rx="2"/>
    <rect x="90" y="56" width="8" height="8" rx="2"/>
    <rect x="66" y="68" width="8" height="8" rx="2"/>
    <rect x="78" y="68" width="8" height="8" rx="2"/>
    <rect x="90" y="68" width="8" height="8" rx="2"/>
    <rect x="66" y="80" width="8" height="8" rx="2"/>
    <rect x="78" y="80" width="8" height="8" rx="2"/>
    <rect x="90" y="80" width="8" height="8" rx="2"/>
  </g>

  <!-- Wordmark -->
  <text x="145" y="88" font-family="system-ui,-apple-system,Segoe UI,Roboto,Ubuntu,Cantarell,Noto Sans,sans-serif"
        font-size="44" font-weight="700" fill="#0f172a">FoglaljOnline</text>
</svg>
