<?xml version="1.0" encoding="UTF-8"?>
<svg xmlns="http://www.w3.org/2000/svg" viewBox="0 0 128 128">
  <g fill="#000000">
    <rect x="20" y="18" width="24" height="92" rx="12" />
    <rect x="20" y="18" width="84" height="22" rx="11" />
    <rect x="20" y="58" width="68" height="20" rx="10" />
    <rect x="84" y="74" width="10" height="10" rx="3" />
    <rect x="98" y="74" width="10" height="10" rx="3" />
    <rect x="112" y="74" width="10" height="10" rx="3" />
    <rect x="84" y="88" width="10" height="10" rx="3" />
    <rect x="98" y="88" width="10" height="10" rx="3" />
    <rect x="112" y="88" width="10" height="10" rx="3" />
    <rect x="84" y="102" width="10" height="10" rx="3" />
    <rect x="98" y="102" width="10" height="10" rx="3" />
    <rect x="112" y="102" width="10" height="10" rx="3" />
  </g>
</svg>
